<svg t="1651913630781" class="icon" viewBox="0 0 1024 1024" version="1.1" xmlns="http://www.w3.org/2000/svg" p-id="4009" width="128" height="128"><path d="M117.76 466.944c-32.768 25.088-33.28 65.536 0 90.624l135.68 102.4c33.28 25.088 59.904 11.776 59.904-29.696V394.24c0-41.472-26.624-54.784-59.904-29.696l-135.68 102.4z m790.016-305.152H114.688c-27.648 0-50.176-22.528-50.176-50.176S87.04 61.44 114.688 61.44h793.088c27.648 0 50.176 22.528 50.176 50.176 0 28.16-22.528 50.176-50.176 50.176z m0 800.256H114.688c-27.648 0-50.176-22.528-50.176-50.176s22.528-50.176 50.176-50.176h793.088c27.648 0 50.176 22.528 50.176 50.176s-22.528 50.176-50.176 50.176z m0-549.888H511.488c-27.648 0-50.176-22.528-50.176-50.176s22.528-50.176 50.176-50.176h396.288c27.648 0 50.176 22.528 50.176 50.176s-22.528 50.176-50.176 50.176z m0 300.032H511.488c-27.648 0-50.176-22.528-50.176-50.176s22.528-50.176 50.176-50.176h396.288c27.648 0 50.176 22.528 50.176 50.176s-22.528 50.176-50.176 50.176z" p-id="4010"></path></svg>
